<?xml version="1.0" encoding="UTF-8"?>
<!DOCTYPE svg PUBLIC "-//W3C//DTD SVG 1.1//EN" "http://www.w3.org/Graphics/SVG/1.1/DTD/svg11.dtd">
<svg xmlns="http://www.w3.org/2000/svg" version="1.1" width="59px" height="35px" style="shape-rendering:geometricPrecision; text-rendering:geometricPrecision; image-rendering:optimizeQuality; fill-rule:evenodd; clip-rule:evenodd" xmlns:xlink="http://www.w3.org/1999/xlink">
<g><path style="opacity:0.73" fill="#fffffe" d="M 4.5,-0.5 C 7.5,-0.5 10.5,-0.5 13.5,-0.5C 14.4687,0.309426 15.3021,1.30943 16,2.5C 16.226,6.88737 16.726,11.2207 17.5,15.5C 16.2524,17.69 14.5857,18.0234 12.5,16.5C 4.94922,19.9833 1.44922,17.6499 2,9.5C 2.90252,8.29857 4.06919,7.46524 5.5,7C 7.90049,6.81416 10.2338,6.31416 12.5,5.5C 11.7303,3.72817 10.3969,2.72817 8.5,2.5C 6.54662,3.15558 4.54662,3.48891 2.5,3.5C 2.52709,1.80072 3.19376,0.46739 4.5,-0.5 Z M 8.5,9.5 C 13.6401,10.9291 13.6401,12.5958 8.5,14.5C 6.99962,14.5472 5.99962,13.8805 5.5,12.5C 6.33977,11.265 7.33977,10.265 8.5,9.5 Z"/></g>
<g><path style="opacity:0.716" fill="#fffffe" d="M 17.5,-0.5 C 18.8333,-0.5 20.1667,-0.5 21.5,-0.5C 23.5,12.8333 25.5,12.8333 27.5,-0.5C 28.8333,-0.5 30.1667,-0.5 31.5,-0.5C 32.4808,3.25075 33.6475,6.91741 35,10.5C 35.9949,6.85494 36.8283,3.18827 37.5,-0.5C 38.8333,-0.5 40.1667,-0.5 41.5,-0.5C 40.7212,5.33992 39.2212,11.0066 37,16.5C 35.3333,17.8333 33.6667,17.8333 32,16.5C 30.3333,5.83333 28.6667,5.83333 27,16.5C 25.3333,17.8333 23.6667,17.8333 22,16.5C 20.1853,10.8937 18.6853,5.22701 17.5,-0.5 Z"/></g>
<g><path style="opacity:0.703" fill="#fffffe" d="M 45.5,-0.5 C 48.5,-0.5 51.5,-0.5 54.5,-0.5C 54.5394,0.583168 54.8728,1.58317 55.5,2.5C 53.5599,3.5284 51.5599,3.5284 49.5,2.5C 47.9996,2.4528 46.9996,3.11947 46.5,4.5C 49.4919,5.88728 52.3252,7.55395 55,9.5C 56.7814,14.9324 54.6147,17.9324 48.5,18.5C 46.4878,18.1604 44.4878,17.8271 42.5,17.5C 42.1531,13.2068 43.8198,12.2068 47.5,14.5C 49.3186,14.6578 50.6519,13.9911 51.5,12.5C 48.5081,11.1127 45.6748,9.44605 43,7.5C 42.0228,4.18266 42.8562,1.51599 45.5,-0.5 Z"/></g>
<g><path style="opacity:0.819" fill="#ed932f" d="M 58.5,21.5 C 58.5,23.1667 58.5,24.8333 58.5,26.5C 57.6391,29.0401 55.9725,31.0401 53.5,32.5C 53.1667,32.1667 52.8333,31.8333 52.5,31.5C 53.9459,29.3821 54.6126,27.0488 54.5,24.5C 44.057,24.4432 43.8904,23.1099 54,20.5C 55.5328,20.7728 57.0328,21.1062 58.5,21.5 Z"/></g>
<g><path style="opacity:0.875" fill="#ed9330" d="M -0.5,22.5 C 16.3998,30.513 33.7331,31.513 51.5,25.5C 53.5689,25.8242 53.9023,26.6575 52.5,28C 47.9777,30.6648 43.3111,32.8315 38.5,34.5C 32.1667,34.5 25.8333,34.5 19.5,34.5C 12.3516,32.2592 5.68497,28.9258 -0.5,24.5C -0.5,23.8333 -0.5,23.1667 -0.5,22.5 Z"/></g>
</svg>
